<?xml version="1.0" encoding="UTF-8" standalone="no"?>
<!DOCTYPE svg PUBLIC "-//W3C//DTD SVG 1.1//EN"
 "http://www.w3.org/Graphics/SVG/1.1/DTD/svg11.dtd">
<!-- Generated by graphviz version 2.36.0 (20140111.2315)
 -->
<!-- Title: TopLevel Pages: 1 -->
<svg width="838pt" height="580pt"
 viewBox="0.00 0.00 838.00 580.00" xmlns="http://www.w3.org/2000/svg" xmlns:xlink="http://www.w3.org/1999/xlink">
<g id="graph0" class="graph" transform="scale(1 1) rotate(0) translate(4 576)">
<title>TopLevel</title>
<polygon fill="white" stroke="none" points="-4,4 -4,-576 834,-576 834,4 -4,4"/>
<g id="clust1" class="cluster"><title>cluster_membrane</title>
<path fill="none" stroke="white" stroke-width="15" d="M20,-8C20,-8 810,-8 810,-8 816,-8 822,-14 822,-20 822,-20 822,-552 822,-552 822,-558 816,-564 810,-564 810,-564 20,-564 20,-564 14,-564 8,-558 8,-552 8,-552 8,-20 8,-20 8,-14 14,-8 20,-8"/>
</g>
<g id="clust2" class="cluster"><title>cluster_binaryAddMembrana</title>
<path fill="none" stroke="white" stroke-width="15" d="M488,-16C488,-16 802,-16 802,-16 808,-16 814,-22 814,-28 814,-28 814,-133 814,-133 814,-139 808,-145 802,-145 802,-145 488,-145 488,-145 482,-145 476,-139 476,-133 476,-133 476,-28 476,-28 476,-22 482,-16 488,-16"/>
</g>
<g id="clust3" class="cluster"><title>cluster_binaryAddComp</title>
<path fill="none" stroke="blue" stroke-width="15" d="M496,-24C496,-24 794,-24 794,-24 800,-24 806,-30 806,-36 806,-36 806,-125 806,-125 806,-131 800,-137 794,-137 794,-137 496,-137 496,-137 490,-137 484,-131 484,-125 484,-125 484,-36 484,-36 484,-30 490,-24 496,-24"/>
<text text-anchor="middle" x="645" y="-121.8" font-family="Times,serif" font-size="14.00">binaryAdd</text>
</g>
<g id="clust6" class="cluster"><title>cluster_binaryDivMembrana</title>
<path fill="none" stroke="white" stroke-width="15" d="M488,-153C488,-153 801,-153 801,-153 807,-153 813,-159 813,-165 813,-165 813,-270 813,-270 813,-276 807,-282 801,-282 801,-282 488,-282 488,-282 482,-282 476,-276 476,-270 476,-270 476,-165 476,-165 476,-159 482,-153 488,-153"/>
</g>
<g id="clust7" class="cluster"><title>cluster_binaryDivComp</title>
<path fill="none" stroke="blue" stroke-width="15" d="M496,-161C496,-161 793,-161 793,-161 799,-161 805,-167 805,-173 805,-173 805,-262 805,-262 805,-268 799,-274 793,-274 793,-274 496,-274 496,-274 490,-274 484,-268 484,-262 484,-262 484,-173 484,-173 484,-167 490,-161 496,-161"/>
<text text-anchor="middle" x="644.5" y="-258.8" font-family="Times,serif" font-size="14.00">binaryDiv</text>
</g>
<g id="clust10" class="cluster"><title>cluster_binaryMulMembrana</title>
<path fill="none" stroke="white" stroke-width="15" d="M488,-290C488,-290 802,-290 802,-290 808,-290 814,-296 814,-302 814,-302 814,-407 814,-407 814,-413 808,-419 802,-419 802,-419 488,-419 488,-419 482,-419 476,-413 476,-407 476,-407 476,-302 476,-302 476,-296 482,-290 488,-290"/>
</g>
<g id="clust11" class="cluster"><title>cluster_binaryMulComp</title>
<path fill="none" stroke="blue" stroke-width="15" d="M496,-298C496,-298 794,-298 794,-298 800,-298 806,-304 806,-310 806,-310 806,-399 806,-399 806,-405 800,-411 794,-411 794,-411 496,-411 496,-411 490,-411 484,-405 484,-399 484,-399 484,-310 484,-310 484,-304 490,-298 496,-298"/>
<text text-anchor="middle" x="645" y="-395.8" font-family="Times,serif" font-size="14.00">binaryMul</text>
</g>
<g id="clust14" class="cluster"><title>cluster_binarySubMembrana</title>
<path fill="none" stroke="white" stroke-width="15" d="M488,-427C488,-427 801,-427 801,-427 807,-427 813,-433 813,-439 813,-439 813,-544 813,-544 813,-550 807,-556 801,-556 801,-556 488,-556 488,-556 482,-556 476,-550 476,-544 476,-544 476,-439 476,-439 476,-433 482,-427 488,-427"/>
</g>
<g id="clust15" class="cluster"><title>cluster_binarySubComp</title>
<path fill="none" stroke="blue" stroke-width="15" d="M496,-435C496,-435 793,-435 793,-435 799,-435 805,-441 805,-447 805,-447 805,-536 805,-536 805,-542 799,-548 793,-548 793,-548 496,-548 496,-548 490,-548 484,-542 484,-536 484,-536 484,-447 484,-447 484,-441 490,-435 496,-435"/>
<text text-anchor="middle" x="644.5" y="-532.8" font-family="Times,serif" font-size="14.00">binarySub</text>
</g>
<g id="clust18" class="cluster"><title>cluster_cliParserMembrana</title>
<path fill="none" stroke="white" stroke-width="15" d="M28,-85C28,-85 352,-85 352,-85 358,-85 364,-91 364,-97 364,-97 364,-475 364,-475 364,-481 358,-487 352,-487 352,-487 28,-487 28,-487 22,-487 16,-481 16,-475 16,-475 16,-97 16,-97 16,-91 22,-85 28,-85"/>
</g>
<g id="clust19" class="cluster"><title>cluster_cliParserComp</title>
<path fill="none" stroke="blue" stroke-width="15" d="M36,-93C36,-93 344,-93 344,-93 350,-93 356,-99 356,-105 356,-105 356,-467 356,-467 356,-473 350,-479 344,-479 344,-479 36,-479 36,-479 30,-479 24,-473 24,-467 24,-467 24,-105 24,-105 24,-99 30,-93 36,-93"/>
<text text-anchor="middle" x="190" y="-463.8" font-family="Times,serif" font-size="14.00">cliParser</text>
</g>
<!-- Srvadd -->
<g id="node1" class="node"><title>Srvadd</title>
<polygon fill="red" stroke="black" points="492,-33 492,-105 546,-105 546,-33 492,-33"/>
<text text-anchor="middle" x="519" y="-65.3" font-family="Times,serif" font-size="14.00">add</text>
</g>
<!-- add_src -->
<g id="node2" class="node"><title>add_src</title>
<polygon fill="none" stroke="black" points="792,-87 690,-87 690,-51 798,-51 798,-81 792,-87"/>
<polyline fill="none" stroke="black" points="792,-87 792,-81 "/>
<polyline fill="none" stroke="black" points="798,-81 792,-81 "/>
<text text-anchor="middle" x="744" y="-65.3" font-family="Times,serif" font-size="14.00">/operation/Add.c</text>
</g>
<!-- Srvdiv -->
<g id="node3" class="node"><title>Srvdiv</title>
<polygon fill="red" stroke="black" points="492,-170 492,-242 546,-242 546,-170 492,-170"/>
<text text-anchor="middle" x="519" y="-202.3" font-family="Times,serif" font-size="14.00">div</text>
</g>
<!-- div_src -->
<g id="node4" class="node"><title>div_src</title>
<polygon fill="none" stroke="black" points="790.5,-224 691.5,-224 691.5,-188 796.5,-188 796.5,-218 790.5,-224"/>
<polyline fill="none" stroke="black" points="790.5,-224 790.5,-218 "/>
<polyline fill="none" stroke="black" points="796.5,-218 790.5,-218 "/>
<text text-anchor="middle" x="744" y="-202.3" font-family="Times,serif" font-size="14.00">/operation/Div.c</text>
</g>
<!-- Srvmul -->
<g id="node5" class="node"><title>Srvmul</title>
<polygon fill="red" stroke="black" points="492,-307 492,-379 546,-379 546,-307 492,-307"/>
<text text-anchor="middle" x="519" y="-339.3" font-family="Times,serif" font-size="14.00">mul</text>
</g>
<!-- mul_src -->
<g id="node6" class="node"><title>mul_src</title>
<polygon fill="none" stroke="black" points="792,-361 690,-361 690,-325 798,-325 798,-355 792,-361"/>
<polyline fill="none" stroke="black" points="792,-361 792,-355 "/>
<polyline fill="none" stroke="black" points="798,-355 792,-355 "/>
<text text-anchor="middle" x="744" y="-339.3" font-family="Times,serif" font-size="14.00">/operation/Mul.c</text>
</g>
<!-- Srvsub -->
<g id="node7" class="node"><title>Srvsub</title>
<polygon fill="red" stroke="black" points="492,-444 492,-516 546,-516 546,-444 492,-444"/>
<text text-anchor="middle" x="519" y="-476.3" font-family="Times,serif" font-size="14.00">sub</text>
</g>
<!-- sub_src -->
<g id="node8" class="node"><title>sub_src</title>
<polygon fill="none" stroke="black" points="791,-498 691,-498 691,-462 797,-462 797,-492 791,-498"/>
<polyline fill="none" stroke="black" points="791,-498 791,-492 "/>
<polyline fill="none" stroke="black" points="797,-492 791,-492 "/>
<text text-anchor="middle" x="744" y="-476.3" font-family="Times,serif" font-size="14.00">/operation/Sub.c</text>
</g>
<!-- Cltadd -->
<g id="node9" class="node"><title>Cltadd</title>
<polygon fill="green" stroke="black" points="294,-102 294,-174 348,-174 348,-102 294,-102"/>
<text text-anchor="middle" x="321" y="-134.3" font-family="Times,serif" font-size="14.00">add</text>
</g>
<!-- Cltadd&#45;&gt;Srvadd -->
<g id="edge1" class="edge"><title>Cltadd:e&#45;&gt;Srvadd:w</title>
<path fill="none" stroke="#1f78b4" d="M349,-138C415.604,-138 420.487,-75.8299 480.822,-69.5157"/>
<polygon fill="#1f78b4" stroke="#1f78b4" points="481.19,-73.0017 491,-69 480.836,-66.0107 481.19,-73.0017"/>
</g>
<!-- Cltdiv -->
<g id="node10" class="node"><title>Cltdiv</title>
<polygon fill="green" stroke="black" points="294,-193 294,-265 348,-265 348,-193 294,-193"/>
<text text-anchor="middle" x="321" y="-225.3" font-family="Times,serif" font-size="14.00">div</text>
</g>
<!-- Cltdiv&#45;&gt;Srvdiv -->
<g id="edge2" class="edge"><title>Cltdiv:e&#45;&gt;Srvdiv:w</title>
<path fill="none" stroke="#b2df8a" d="M349,-229C409.437,-229 425.372,-208.447 480.941,-206.199"/>
<polygon fill="#b2df8a" stroke="#b2df8a" points="481.071,-209.697 491,-206 480.933,-202.698 481.071,-209.697"/>
</g>
<!-- Cltmul -->
<g id="node11" class="node"><title>Cltmul</title>
<polygon fill="green" stroke="black" points="294,-284 294,-356 348,-356 348,-284 294,-284"/>
<text text-anchor="middle" x="321" y="-316.3" font-family="Times,serif" font-size="14.00">mul</text>
</g>
<!-- Cltmul&#45;&gt;Srvmul -->
<g id="edge3" class="edge"><title>Cltmul:e&#45;&gt;Srvmul:w</title>
<path fill="none" stroke="#33a02c" d="M349,-320C409.437,-320 425.372,-340.553 480.941,-342.801"/>
<polygon fill="#33a02c" stroke="#33a02c" points="480.933,-346.302 491,-343 481.071,-339.303 480.933,-346.302"/>
</g>
<!-- Cltsub -->
<g id="node12" class="node"><title>Cltsub</title>
<polygon fill="green" stroke="black" points="294,-375 294,-447 348,-447 348,-375 294,-375"/>
<text text-anchor="middle" x="321" y="-407.3" font-family="Times,serif" font-size="14.00">sub</text>
</g>
<!-- Cltsub&#45;&gt;Srvsub -->
<g id="edge4" class="edge"><title>Cltsub:e&#45;&gt;Srvsub:w</title>
<path fill="none" stroke="#fb9a99" d="M349,-411C415.604,-411 420.487,-473.17 480.822,-479.484"/>
<polygon fill="#fb9a99" stroke="#fb9a99" points="480.836,-482.989 491,-480 481.19,-475.998 480.836,-482.989"/>
</g>
<!-- 0 -->
<g id="node13" class="node"><title>0</title>
<polygon fill="none" stroke="black" points="143.5,-292 32.5,-292 32.5,-256 149.5,-256 149.5,-286 143.5,-292"/>
<polyline fill="none" stroke="black" points="143.5,-292 143.5,-286 "/>
<polyline fill="none" stroke="black" points="149.5,-286 143.5,-286 "/>
<text text-anchor="middle" x="91" y="-270.3" font-family="Times,serif" font-size="14.00">/main/CLIParser.c</text>
</g>
</g>
</svg>
